<?xml version="1.0" encoding="UTF-8" standalone="no"?>
<svg
   xmlns:dc="http://purl.org/dc/elements/1.1/"
   xmlns:cc="http://creativecommons.org/ns#"
   xmlns:rdf="http://www.w3.org/1999/02/22-rdf-syntax-ns#"
   xmlns:svg="http://www.w3.org/2000/svg"
   xmlns="http://www.w3.org/2000/svg"
   xmlns:sodipodi="http://sodipodi.sourceforge.net/DTD/sodipodi-0.dtd"
   xmlns:inkscape="http://www.inkscape.org/namespaces/inkscape"
   id="svg"
   version="1.1"
   width="998.16766"
   height="499.08383"
   style="display:block"
   inkscape:version="0.91 r13725"
   sodipodi:docname="aquinas.svg">
  <metadata
     id="metadata13">
    <rdf:RDF>
      <cc:Work
         rdf:about="">
        <dc:format>image/svg+xml</dc:format>
        <dc:type
           rdf:resource="http://purl.org/dc/dcmitype/StillImage" />
        <dc:title></dc:title>
      </cc:Work>
    </rdf:RDF>
  </metadata>
  <defs
     id="defs11" />
  <sodipodi:namedview
     pagecolor="#ffffff"
     bordercolor="#666666"
     borderopacity="1"
     objecttolerance="10"
     gridtolerance="10"
     guidetolerance="10"
     inkscape:pageopacity="0"
     inkscape:pageshadow="2"
     inkscape:window-width="1920"
     inkscape:window-height="985"
     id="namedview9"
     showgrid="false"
     fit-margin-top="0"
     fit-margin-left="0"
     fit-margin-right="0"
     fit-margin-bottom="0"
     inkscape:zoom="0.99318355"
     inkscape:cx="499.08383"
     inkscape:cy="169.6678"
     inkscape:window-x="0"
     inkscape:window-y="32"
     inkscape:window-maximized="1"
     inkscape:current-layer="svg" />
  <g
     id="svgg"
     transform="scale(2.4954191,2.4954191)">
    <path
       id="path0"
       d="m 0,100 0,100 200,0 200,0 0,-100 L 400,0 200,0 0,0 0,100 M 89.537,56.591 C 122.806,61.587 113.389,78.503 77.353,78.476 46.15,78.453 32.813,65.047 57.165,58.184 64.818,56.028 80.614,55.25 89.537,56.591 m 45.472,6.109 c -0.755,1.908 -0.718,3.552 0.059,2.647 1.772,-2.065 3.031,-1.995 1.934,0.107 -0.857,1.644 -0.746,3.083 0.437,5.668 0.882,1.928 1.017,2.708 0.893,5.158 l -0.146,2.887 2.433,-0.041 c 2.515,-0.043 5.868,1.301 3.961,1.588 -2.133,0.32 -2.794,0.654 -4.548,2.295 -2.441,2.283 -4.19,2.991 -7.389,2.991 l -2.583,0 -0.93,1.685 c -1.775,3.215 -5.824,4.585 -8.341,2.822 -0.544,-0.381 -1.034,-0.651 -1.089,-0.6 -0.753,0.699 -4.252,-2.206 -4.04,-3.353 0.107,-0.574 1.226,-1.107 4.683,-2.231 5.543,-1.801 5.376,-1.627 2.717,-2.844 -1.205,-0.552 -2.413,-1.425 -2.683,-1.941 -0.271,-0.516 -1.109,-1.627 -1.862,-2.469 -0.934,-1.044 -1.342,-1.871 -1.285,-2.6 0.045,-0.588 -0.104,-1.519 -0.332,-2.069 -0.245,-0.591 -0.268,-1.156 -0.056,-1.38 0.197,-0.209 0.358,-0.856 0.358,-1.438 0,-2.191 1.405,-2.676 2.54,-0.877 1.166,1.848 3.84,4.245 5.944,5.33 1.88,0.969 1.916,0.965 1.916,-0.232 0,-0.563 0.348,-1.213 0.8,-1.496 0.622,-0.388 0.8,-0.933 0.8,-2.449 0,-2.457 1.613,-5.566 3.581,-6.904 1.689,-1.147 2.623,-1.254 2.228,-0.254 M 54.205,80.595 c 16.162,4.706 39.468,3.721 52.108,-2.203 1.869,-0.875 3.553,-1.592 3.742,-1.592 0.576,0 0.409,8.673 -0.195,10.119 -4.963,11.876 -53.288,13.309 -63.607,1.887 l -1.453,-1.608 0,-5.347 0,-5.347 2.905,1.522 c 1.597,0.837 4.522,1.993 6.5,2.569 M 187.4,93.22 c 11.157,2.901 16.282,16.757 9.724,26.291 l -1.177,1.71 1.017,1.21 1.018,1.209 -1.291,1.099 c -0.71,0.604 -2.082,1.711 -3.049,2.459 l -1.758,1.361 -1.242,-1.457 -1.242,-1.457 -2.187,0.578 c -14.926,3.94 -27.272,-10.728 -20.599,-24.472 3.321,-6.84 12.616,-10.655 20.786,-8.531 m 159.523,0.177 c 2.49,0.648 5.53,2.07 7.037,3.29 l 0.952,0.771 -2.124,2.971 c -1.168,1.634 -2.26,3.128 -2.425,3.32 -0.166,0.192 -0.81,-0.009 -1.432,-0.446 -4.047,-2.847 -10.219,-3.781 -11.325,-1.715 -0.931,1.741 -0.087,2.232 6.594,3.84 8.499,2.045 11.21,4.609 11.19,10.583 -0.028,8.378 -8.779,12.821 -19.776,10.04 -3.147,-0.796 -8.414,-3.592 -8.414,-4.466 0,-0.825 4.498,-6.773 4.93,-6.519 0.258,0.153 1.02,0.69 1.692,1.194 4.14,3.104 11.273,3.778 12.655,1.195 0.713,-1.33 -1.001,-2.411 -5.119,-3.229 -9.466,-1.88 -12.958,-4.823 -12.958,-10.922 0,-7.808 8.705,-12.464 18.523,-9.907 m -187.881,16.195 c 3.359,8.905 6.069,16.23 6.023,16.277 -0.077,0.076 -8.196,0.211 -9.337,0.154 -0.26,-0.012 -0.825,-0.968 -1.255,-2.123 l -0.784,-2.1 -6.31,0 -6.31,0 -0.634,1.872 c -0.349,1.029 -0.755,1.989 -0.902,2.133 -0.264,0.259 -9.498,0.364 -9.751,0.111 -0.072,-0.072 1.672,-4.898 3.875,-10.724 2.203,-5.825 4.788,-12.662 5.745,-15.192 0.956,-2.53 1.929,-5.1 2.163,-5.711 l 0.424,-1.112 5.472,0.112 5.473,0.111 6.108,16.192 m 54.64,-5.428 0.118,10.963 1.239,1.53 c 2.814,3.475 8.704,3.182 11.022,-0.547 0.915,-1.471 0.942,-1.79 1.068,-12.223 l 0.129,-10.713 4.271,0.113 4.271,0.113 0.115,9.8 c 0.126,10.642 -0.195,13.801 -1.705,16.781 -4.867,9.603 -23.259,9.134 -28.098,-0.716 L 205,117 204.872,105.662 C 204.716,91.831 204.222,93.2 209.369,93.2 l 4.195,0 0.118,10.964 m 37.518,5.436 0,16.4 -4.4,0 -4.4,0 0,-16.4 0,-16.4 4.4,0 4.4,0 0,16.4 m 18.248,-12.594 c 1.514,2.093 3.121,4.316 3.572,4.94 3.524,4.876 5.995,8.054 6.262,8.054 0.175,0 0.318,-3.786 0.318,-8.414 l 0,-8.413 4.3,0.113 4.3,0.114 0.104,16.3 0.105,16.3 -4.37,0 -4.371,0 -1.519,-2.1 c -2.068,-2.858 -6.619,-9.058 -9.322,-12.7 l -2.227,-3 -0.108,8.9 -0.107,8.9 -4.393,0 -4.392,0 0,-16.4 0,-16.4 4.548,0 4.548,0 2.752,3.806 M 314.987,94.5 c 0.493,1.117 4.45,11.62 9.835,26.1 0.818,2.2 1.612,4.302 1.764,4.67 0.357,0.866 -0.698,0.995 -5.953,0.73 l -3.967,-0.2 -0.668,-2 -0.667,-2 -6.332,0 -6.332,0 -0.733,2.2 -0.733,2.2 -4.855,-0.088 c -2.671,-0.049 -4.905,-0.139 -4.965,-0.2 -0.06,-0.062 1.595,-4.612 3.678,-10.112 2.082,-5.5 4.698,-12.43 5.813,-15.4 1.114,-2.97 2.18,-5.805 2.367,-6.3 0.331,-0.872 0.508,-0.9 5.758,-0.9 l 5.416,0 0.574,1.3 M 47.686,96.177 c 8.134,4.457 29.219,6.775 43.435,4.777 l 1.721,-0.242 -0.828,1.344 c -1.358,2.206 -2.414,6.204 -2.414,9.139 0,3.353 0.493,3.163 -9.014,3.479 C 63.77,115.233 48.752,111.501 45.433,105.938 44.839,104.942 44.432,94.8 44.986,94.8 c 0.103,0 1.318,0.62 2.7,1.377 m 66.53,1.244 c 13.72,3.572 15.691,21.036 3.079,27.27 -7.672,3.792 -16.842,0.853 -20.86,-6.686 -5.869,-11.011 5.225,-23.854 17.781,-20.584 m 64.984,3.617 c -8.897,3.853 -6.161,18.162 3.473,18.162 1.195,0 1.17,-0.178 -0.276,-2.003 -1.475,-1.863 -1.37,-2.121 1.824,-4.497 3.089,-2.298 2.981,-2.292 4.712,-0.269 l 1.396,1.63 0.481,-2.149 c 1.631,-7.29 -5.172,-13.663 -11.61,-10.874 m -33.674,7.155 c -1.014,2.945 -1.743,5.457 -1.618,5.581 0.296,0.297 6.691,0.294 6.988,-0.003 0.192,-0.192 -3.033,-10.442 -3.402,-10.811 -0.068,-0.068 -0.954,2.287 -1.968,5.233 m 161.773,-0.45 c -2.271,6.521 -2.362,6.148 1.523,6.219 1.772,0.032 3.378,-0.039 3.57,-0.157 0.272,-0.168 -2.822,-10.368 -3.285,-10.831 -0.06,-0.06 -0.873,2.086 -1.808,4.769 m -194.739,1.648 c -5.078,4.882 -4.551,4.701 -7.015,2.396 l -1.938,-1.813 -1.41,1.283 -1.41,1.283 3.499,3.285 3.499,3.286 6.122,-5.819 6.122,-5.818 -1.09,-1.137 c -1.533,-1.601 -1.539,-1.598 -6.379,3.054 m -60.412,6.804 c 7.448,2.803 20.754,4.225 31.999,3.418 5.016,-0.36 6.867,-0.372 6.976,-0.043 0.865,2.594 5.297,7.389 8.225,8.897 1.933,0.997 1.649,1.272 -2.363,2.291 -17.518,4.446 -43.026,1.815 -50.205,-5.178 l -1.98,-1.928 0,-5.42 0,-5.42 2.341,1.19 c 1.288,0.654 3.541,1.641 5.007,2.193"
       inkscape:connector-curvature="0"
       style="fill:#ffffff;fill-rule:evenodd;stroke:none" />
    <path
       id="path1"
       d="m 67.2,56.594 c -7.27,0.795 -18.4,4.098 -18.4,5.46 0,0.19 -0.236,0.346 -0.525,0.346 -1.178,0 -3.476,3.225 -3.474,4.874 0.004,1.894 4.139,6.381 5.249,5.695 0.192,-0.119 0.35,-0.05 0.35,0.154 0,0.957 7.274,3.169 13.987,4.254 13.462,2.176 33.741,0.113 39.984,-4.067 0.566,-0.379 1.149,-0.694 1.295,-0.7 0.555,-0.021 2.756,-1.871 3.404,-2.86 C 114.624,61.272 91.332,53.953 67.2,56.594 m 65.058,7.408 c -2.735,2.402 -3.507,6.956 -1.896,11.194 0.418,1.102 0.602,2.004 0.408,2.004 -0.445,0 -1.97,-2.949 -1.97,-3.808 0,-0.351 -0.18,-0.528 -0.4,-0.392 -0.656,0.405 -0.436,1.876 0.596,3.983 0.534,1.091 0.874,2.08 0.755,2.199 -0.288,0.288 -1.301,-1.07 -1.995,-2.672 -0.311,-0.718 -1.136,-1.585 -1.857,-1.952 -2.35,-1.197 -4.955,-3.308 -6.072,-4.92 -1.214,-1.75 -2.227,-1.806 -2.227,-0.122 0,0.713 0.616,1.625 1.999,2.958 1.26,1.214 1.76,1.926 1.353,1.926 -0.356,0 -1.345,-0.699 -2.199,-1.553 -0.918,-0.918 -1.553,-1.314 -1.553,-0.969 0,0.629 1.503,2.205 3.412,3.575 1.872,1.345 0.937,1.469 -1.141,0.151 -1.138,-0.721 -1.871,-0.99 -1.871,-0.684 0,1.058 1.351,2.345 3.729,3.551 1.359,0.689 2.256,1.326 1.993,1.417 -0.263,0.09 -0.836,-0.028 -1.274,-0.262 -1.186,-0.635 -1.454,-0.517 -0.705,0.311 0.366,0.405 1.654,1.072 2.862,1.482 3.17,1.078 2.816,1.365 -4.205,3.396 -3.231,0.935 -4,1.367 -4,2.247 0,1.071 1.163,1.002 2.878,-0.172 1.343,-0.919 4.322,-1.931 4.322,-1.468 0,0.046 -0.971,0.559 -2.159,1.14 -2.358,1.154 -3.251,1.974 -2.852,2.62 0.468,0.758 2.055,0.436 3.041,-0.616 0.88,-0.939 3.857,-2.577 4.648,-2.558 0.177,0.004 -0.488,0.519 -1.478,1.146 -4.071,2.574 -4.041,3.867 0.086,3.692 1.33,-0.056 3.703,-2.073 4.679,-3.975 l 0.723,-1.408 2.62,0.095 c 3.009,0.109 5.044,-0.706 6.941,-2.78 0.633,-0.692 1.661,-1.482 2.284,-1.756 1.442,-0.633 0.489,-1.963 -1.162,-1.622 -0.534,0.11 -1.416,0.292 -1.959,0.405 l -0.988,0.204 0.241,-3.126 c 0.204,-2.64 0.112,-3.419 -0.589,-5.005 -1.057,-2.39 -1.069,-2.382 -1.114,0.741 -0.051,3.574 -0.791,4.189 -0.817,0.679 -0.011,-1.484 -0.341,-3.651 -0.734,-4.816 -0.488,-1.445 -0.637,-2.684 -0.471,-3.9 0.29,-2.11 -0.028,-2.208 -1.882,-0.58 m 3.667,1.096 c -1.058,1.231 -1.173,1.665 -0.684,2.579 0.449,0.838 0.509,0.77 0.983,-1.092 0.578,-2.271 0.539,-2.463 -0.299,-1.487 m -28.047,12.893 c -1.033,0.655 -1.878,1.085 -1.878,0.954 0,-0.13 -0.405,0.024 -0.9,0.343 -5.779,3.728 -27.786,5.733 -40.86,3.722 -7.346,-1.129 -17.703,-4.243 -18.173,-5.464 -0.074,-0.19 -0.389,-0.346 -0.7,-0.346 -0.844,0 -0.804,8.203 0.048,9.911 6.198,12.423 58.723,12.225 64.053,-0.242 0.46,-1.077 0.785,-10.069 0.364,-10.069 -0.042,0 -0.921,0.536 -1.954,1.191 m 68.717,15.929 c -9.316,3.221 -13.719,12.769 -10.212,22.142 2.906,7.769 12.064,12.062 20.83,9.765 l 2.187,-0.573 1.4,1.351 1.4,1.351 2.4,-1.983 c 2.849,-2.354 2.945,-2.554 1.811,-3.762 l -0.875,-0.931 1.05,-1.588 c 9.196,-13.896 -4.241,-31.219 -19.991,-25.772 m 159.44,0.06 c -4.843,1.803 -6.94,4.451 -7.173,9.056 -0.286,5.67 2.693,8.464 11.138,10.447 5.21,1.224 5.655,1.372 6.421,2.138 4.215,4.215 -8.203,4.977 -13.21,0.81 l -1.388,-1.155 -2.111,3.032 c -2.411,3.464 -2.393,3.559 0.998,5.404 11.104,6.044 24.522,1.707 24.481,-7.912 -0.023,-5.478 -3.245,-8.233 -11.956,-10.222 -4.86,-1.11 -6.435,-1.862 -6.435,-3.075 0,-1.318 1.449,-2.425 2.977,-2.273 0.672,0.067 2.173,0.214 3.334,0.328 1.284,0.126 3.053,0.709 4.516,1.489 1.399,0.745 2.541,1.129 2.731,0.917 C 351.286,101.93 354,97.985 354,97.671 354,94.707 341.165,92.07 336.035,93.98 M 142.486,93.939 c -0.497,0.315 -12.086,30.521 -12.086,31.5 0,0.468 8.546,0.607 8.911,0.145 0.079,-0.101 0.362,-0.941 0.628,-1.866 0.784,-2.732 0.785,-2.732 7.741,-2.599 l 6.226,0.119 0.7,1.881 c 0.384,1.035 0.859,2.055 1.054,2.268 0.544,0.595 8.74,0.624 8.74,0.031 0,-0.506 -11.016,-29.915 -11.656,-31.118 -0.404,-0.759 -9.146,-1.067 -10.258,-0.361 m 62.714,10.388 c 0,13.372 0.36,14.999 4.104,18.556 5.412,5.144 19.011,4.499 23.284,-1.103 2.735,-3.585 2.812,-4.04 2.812,-16.58 l 0,-11.4 -4,0 -4,0 -0.2,10.8 c -0.217,11.697 -0.241,11.828 -2.543,13.584 -1.695,1.292 -6.363,1.47 -8.323,0.316 -2.77,-1.63 -2.92,-2.325 -3.063,-14.2 l -0.129,-10.7 -3.971,0 -3.971,0 0,10.727 m 37.867,-10.46 c -0.147,0.146 -0.267,7.343 -0.267,15.992 l 0,15.726 0.905,0.227 c 0.497,0.125 2.252,0.173 3.9,0.107 l 2.995,-0.119 0.105,-16.1 0.104,-16.1 -3.738,0 c -2.056,0 -3.858,0.12 -4.004,0.267 m 15.213,-0.013 c -0.379,0.378 -0.359,31.731 0.02,31.803 0.923,0.174 6.408,0.233 7,0.075 0.64,-0.17 0.7,-0.951 0.7,-9.159 0,-5.087 0.157,-8.973 0.362,-8.973 0.199,0 3.19,3.878 6.646,8.618 7.838,10.748 6.605,9.675 11.063,9.625 l 3.729,-0.043 0.105,-16.114 0.104,-16.114 -4.104,0.114 -4.105,0.114 -0.074,8.541 c -0.041,4.697 -0.148,8.614 -0.237,8.704 -0.134,0.133 -5.979,-7.618 -11.722,-15.544 l -1.232,-1.701 -3.988,-0.113 c -2.193,-0.062 -4.113,0.013 -4.267,0.167 M 303.667,94.3 C 303.079,95.442 292,124.989 292,125.417 c 0,0.47 7.999,0.739 8.641,0.291 0.243,-0.169 0.752,-1.253 1.132,-2.408 l 0.691,-2.1 6.535,0 6.535,0 0.699,1.9 c 0.385,1.045 0.858,2.08 1.053,2.3 0.563,0.637 8.714,0.64 8.714,0.003 0,-0.548 -10.947,-29.784 -11.63,-31.059 -0.586,-1.095 -10.141,-1.133 -10.703,-0.044 M 44.958,95.766 c -1.211,3.156 0.967,13.069 2.643,12.033 0.193,-0.119 0.496,0.035 0.674,0.342 2.312,3.972 25.957,7.664 38.325,5.983 l 2.4,-0.326 0.271,-3.266 c 0.172,-2.079 0.65,-4.188 1.314,-5.8 1.424,-3.456 1.445,-3.34 -0.585,-3.268 -0.99,0.036 -5.22,0.196 -9.4,0.357 -10.899,0.42 -19.96,-0.642 -27.706,-3.245 C 51.192,98.004 49.62,97.505 49.4,97.468 49.18,97.431 48.909,97.31 48.799,97.2 47.805,96.211 45.165,95.226 44.958,95.766 m 61.827,1.777 c -3.914,0.839 -9.614,5.197 -10.164,7.771 -0.057,0.267 -0.4,1.155 -0.762,1.973 -1.265,2.856 -0.235,11.513 1.37,11.513 0.204,0 0.371,0.245 0.371,0.545 0,0.943 3.925,4.265 6.312,5.342 4.083,1.843 11.764,1.58 13.816,-0.472 0.317,-0.317 0.663,-0.49 0.769,-0.385 0.105,0.106 1.111,-0.635 2.235,-1.645 4.633,-4.166 6.1,-11.053 3.488,-16.385 -1.203,-2.456 -4.788,-6.39 -5.451,-5.981 -0.203,0.126 -0.369,0.06 -0.369,-0.146 0,-1.399 -8.097,-2.883 -11.615,-2.13 m 79.941,3.619 c 3.773,1.925 5.779,7.944 4.078,12.238 l -0.475,1.2 -1.475,-1.7 c -1.826,-2.104 -1.599,-2.123 -4.655,0.392 l -2.542,2.092 1.371,1.908 1.371,1.908 -2.662,0 c -9.604,0 -11.494,-15.218 -2.314,-18.627 2.02,-0.75 5.176,-0.496 7.303,0.589 m -36.971,6.991 c 1.03,3.054 1.786,5.64 1.68,5.745 -0.201,0.201 -7.908,0.163 -8.111,-0.04 -0.104,-0.105 2.966,-9.426 3.685,-11.185 0.445,-1.089 0.707,-0.566 2.746,5.48 m 161.61,-0.005 c 1.03,3.051 1.783,5.637 1.674,5.747 -0.212,0.212 -7.848,0.229 -8.059,0.018 -0.069,-0.069 0.76,-2.732 1.842,-5.919 1.082,-3.187 1.969,-5.875 1.972,-5.974 0.026,-0.845 1.002,1.48 2.571,6.128 m -192.377,-2.033 1.521,1.315 -1.9,1.785 c -1.045,0.982 -3.676,3.486 -5.846,5.565 -5.321,5.095 -4.798,4.952 -7.707,2.113 -1.351,-1.318 -2.861,-2.728 -3.356,-3.133 -1.189,-0.975 -1.15,-1.172 0.535,-2.715 l 1.434,-1.314 2.03,1.926 2.03,1.925 2.035,-1.936 c 8.319,-7.915 7.225,-7.259 9.224,-5.531 m -73.943,7.374 c -0.446,0.445 -0.275,9.311 0.179,9.311 0.233,0 0.319,0.169 0.191,0.376 -0.731,1.183 4.415,4.783 9.177,6.421 11.582,3.985 34.842,4.137 44.27,0.29 l 1.306,-0.533 -2.248,-1.492 c -2.285,-1.516 -6.02,-5.499 -6.18,-6.589 -0.214,-1.461 -1.435,-2.003 -3.74,-1.659 -12.234,1.824 -32.867,-0.815 -40.631,-5.197 -1.144,-0.645 -2.19,-1.063 -2.324,-0.928"
       inkscape:connector-curvature="0"
       style="fill:#ff5349;fill-rule:evenodd;stroke:none" />
    <path
       id="path2"
       d="m 135.475,68.764 c 0.116,0.445 0.448,1.006 0.737,1.246 0.411,0.341 0.479,0.26 0.313,-0.374 -0.116,-0.445 -0.448,-1.006 -0.737,-1.246 -0.411,-0.341 -0.479,-0.26 -0.313,0.374 m -6.174,1.036 c 0.004,0.88 0.086,1.193 0.182,0.695 0.096,-0.497 0.092,-1.217 -0.008,-1.6 -0.1,-0.382 -0.179,0.025 -0.174,0.905 m 6.8,2.4 c 0.004,0.88 0.086,1.193 0.182,0.695 0.096,-0.497 0.092,-1.217 -0.008,-1.6 -0.1,-0.382 -0.179,0.025 -0.174,0.905 m 2.013,3.2 c 0.003,1.1 0.081,1.503 0.173,0.895 0.092,-0.609 0.09,-1.509 -0.005,-2 -0.095,-0.492 -0.171,0.005 -0.168,1.105 m -20.882,-0.7 c 0.02,0.445 0.107,0.512 0.238,0.183 0.17,-0.422 0.329,-0.422 0.869,0 0.591,0.462 0.603,0.442 0.112,-0.183 -0.302,-0.385 -0.707,-0.7 -0.9,-0.7 -0.193,0 -0.337,0.315 -0.319,0.7 m 17.968,0.5 c 0,0.747 0.107,0.853 0.48,0.48 0.373,-0.373 0.373,-0.587 0,-0.96 -0.373,-0.373 -0.48,-0.267 -0.48,0.48 m 6.905,4.277 c 0.388,0.101 0.61,0.337 0.493,0.526 -0.285,0.461 0.497,0.909 1.021,0.585 0.648,-0.4 -0.368,-1.396 -1.368,-1.342 -0.683,0.038 -0.712,0.083 -0.146,0.231 M 72.3,83.882 c 0.495,0.096 1.305,0.096 1.8,0 0.495,-0.095 0.09,-0.173 -0.9,-0.173 -0.99,0 -1.395,0.078 -0.9,0.173 m 8.4,0 c 0.495,0.096 1.305,0.096 1.8,0 0.495,-0.095 0.09,-0.173 -0.9,-0.173 -0.99,0 -1.395,0.078 -0.9,0.173 m 39.517,2.09 c -0.126,0.205 -0.019,0.503 0.238,0.662 0.314,0.194 0.361,0.115 0.141,-0.24 -0.238,-0.385 -0.145,-0.46 0.338,-0.275 0.366,0.141 0.666,0.082 0.666,-0.132 0,-0.495 -1.079,-0.506 -1.383,-0.015 m 4.41,0.387 c -0.426,0.167 -0.604,0.408 -0.396,0.537 0.208,0.128 0.725,-0.021 1.15,-0.331 0.829,-0.606 0.498,-0.696 -0.754,-0.206 m -7.061,1.354 c -0.58,0.445 -0.58,0.545 10e-4,1.153 0.588,0.616 0.637,0.579 0.651,-0.5 0.009,-0.641 0.008,-1.16 -0.001,-1.153 -0.009,0.007 -0.303,0.232 -0.651,0.5 m 9.809,1.587 -1.175,1.3 1.3,-1.175 C 128.712,88.33 128.984,88 128.675,88 c -0.069,0 -0.654,0.585 -1.3,1.3 m 53.732,3.79 c 0.719,0.089 1.799,0.087 2.4,-0.004 0.601,-0.091 0.013,-0.164 -1.307,-0.162 -1.32,0.002 -1.812,0.077 -1.093,0.166 m 32.267,10.51 c 0,5.61 0.056,7.905 0.125,5.1 0.069,-2.805 0.069,-7.395 0,-10.2 -0.069,-2.805 -0.125,-0.51 -0.125,5.1 m 37.335,6.2 c -0.06,8.91 0.026,16.2 0.191,16.2 0.165,0 0.3,-7.29 0.3,-16.2 0,-8.91 -0.086,-16.2 -0.191,-16.2 -0.105,0 -0.24,7.29 -0.3,16.2 M 352.6,96.238 c 0.44,0.419 1.025,1.021 1.3,1.338 0.294,0.34 0.5,0.392 0.5,0.128 0,-0.247 -0.585,-0.85 -1.3,-1.339 -0.955,-0.653 -1.088,-0.687 -0.5,-0.127 m -171.1,4.044 c 0.495,0.096 1.305,0.096 1.8,0 0.495,-0.095 0.09,-0.173 -0.9,-0.173 -0.99,0 -1.395,0.078 -0.9,0.173 M 91.2,101.2 c 0.776,0.501 1.2,0.501 1.2,0 0,-0.22 -0.405,-0.397 -0.9,-0.394 -0.728,0.005 -0.785,0.08 -0.3,0.394 m 237.301,2.2 c 0.004,0.88 0.086,1.193 0.182,0.695 0.096,-0.497 0.092,-1.217 -0.008,-1.6 -0.1,-0.382 -0.179,0.025 -0.174,0.905 M 266,116.567 c 0,6.799 -0.121,9.015 -0.5,9.168 -0.299,0.121 -0.218,0.215 0.2,0.233 0.647,0.03 0.7,-0.661 0.7,-9.168 0,-5.06 -0.09,-9.2 -0.2,-9.2 -0.11,0 -0.2,4.035 -0.2,8.967 m -148.625,-6.468 -1.175,1.298 1.2,-0.992 c 0.66,-0.546 1.371,-1.131 1.58,-1.299 0.236,-0.19 0.226,-0.306 -0.025,-0.306 -0.223,0 -0.934,0.584 -1.58,1.299 m -5.575,-0.593 c -0.22,0.162 -0.757,0.744 -1.194,1.294 -0.663,0.835 -0.58,0.806 0.5,-0.175 1.168,-1.061 1.485,-1.437 1.194,-1.419 -0.055,0.003 -0.28,0.138 -0.5,0.3 M 94.893,111.6 c 0,0.77 0.082,1.085 0.183,0.7 0.1,-0.385 0.1,-1.015 0,-1.4 -0.101,-0.385 -0.183,-0.07 -0.183,0.7 M 75.3,114.694 c 1.045,0.082 2.755,0.082 3.8,0 1.045,-0.082 0.19,-0.15 -1.9,-0.15 -2.09,0 -2.945,0.068 -1.9,0.15 m 34.075,2.956 c -0.823,0.875 -0.923,1.097 -0.334,0.741 0.726,-0.44 2.002,-1.991 1.637,-1.991 -0.07,0 -0.657,0.563 -1.303,1.25 m 244.503,2.955 c -0.366,0.767 -0.583,1.395 -0.482,1.395 0.274,0 1.488,-2.449 1.305,-2.632 -0.087,-0.087 -0.457,0.47 -0.823,1.237 M 229.5,124.229 c -1.495,0.811 -1.404,1.149 0.1,0.371 0.66,-0.341 1.2,-0.706 1.2,-0.81 0,-0.258 -0.043,-0.243 -1.3,0.439 M 94,124.525 c 0,0.069 0.585,0.654 1.3,1.3 L 96.6,127 95.425,125.7 C 94.33,124.488 94,124.216 94,124.525 m 15.5,1.757 c 0.495,0.096 1.305,0.096 1.8,0 0.495,-0.095 0.09,-0.173 -0.9,-0.173 -0.99,0 -1.395,0.078 -0.9,0.173"
       inkscape:connector-curvature="0"
       style="fill:#ed847e;fill-rule:evenodd;stroke:none" />
    <path
       id="path3"
       d="m 129.029,72.229 c -0.148,0.586 -0.178,1.155 -0.068,1.265 0.11,0.11 0.32,-0.279 0.468,-0.865 0.147,-0.587 0.177,-1.156 0.067,-1.266 -0.11,-0.11 -0.32,0.279 -0.467,0.866 m 6.672,1.171 c 0.004,0.88 0.086,1.193 0.182,0.695 0.096,-0.497 0.092,-1.217 -0.008,-1.6 -0.1,-0.382 -0.179,0.025 -0.174,0.905 m -59.81,10.489 c 0.71,0.088 1.97,0.09 2.8,0.003 0.83,-0.087 0.249,-0.159 -1.291,-0.161 -1.54,-0.002 -2.219,0.069 -1.509,0.158 m 264.416,9.201 c 0.719,0.089 1.799,0.087 2.4,-0.004 0.601,-0.091 0.013,-0.164 -1.307,-0.162 -1.32,0.002 -1.812,0.077 -1.093,0.166 M 204.975,104 c 0,5.83 0.056,8.215 0.124,5.3 0.068,-2.915 0.068,-7.685 0,-10.6 -0.068,-2.915 -0.124,-0.53 -0.124,5.3 m 37.608,5.8 c 0,9.02 0.052,12.767 0.116,8.327 0.065,-4.44 0.065,-11.82 10e-4,-16.4 -0.065,-4.58 -0.117,-0.947 -0.117,8.073 m 15.2,0 c 0,9.02 0.052,12.767 0.116,8.327 0.065,-4.44 0.065,-11.82 10e-4,-16.4 -0.065,-4.58 -0.117,-0.947 -0.117,8.073 M 75.513,96.695 c 1.163,0.081 2.963,0.081 4,-0.002 1.038,-0.082 0.087,-0.148 -2.113,-0.147 -2.2,10e-4 -3.049,0.068 -1.887,0.149 m 34.187,0.381 c 0.385,0.1 1.015,0.1 1.4,0 0.385,-0.101 0.07,-0.183 -0.7,-0.183 -0.77,0 -1.085,0.082 -0.7,0.183 m -28.595,4.807 c 0.497,0.096 1.217,0.092 1.6,-0.008 0.382,-0.1 -0.025,-0.179 -0.905,-0.174 -0.88,0.004 -1.193,0.086 -0.695,0.182 m 8.219,9.917 c 0.002,1.32 0.077,1.812 0.166,1.093 0.089,-0.719 0.087,-1.799 -0.004,-2.4 -0.091,-0.601 -0.164,-0.013 -0.162,1.307 m -8.024,2.876 c 0.385,0.1 1.015,0.1 1.4,0 0.385,-0.101 0.07,-0.183 -0.7,-0.183 -0.77,0 -1.085,0.082 -0.7,0.183 m 100,12.011 c 0.605,0.091 1.595,0.091 2.2,0 0.605,-0.092 0.11,-0.167 -1.1,-0.167 -1.21,0 -1.705,0.075 -1.1,0.167 m 37.391,0.002 c 0.71,0.088 1.97,0.09 2.8,0.003 0.83,-0.087 0.249,-0.159 -1.291,-0.161 -1.54,-0.002 -2.219,0.069 -1.509,0.158 m 121.609,0 c 0.715,0.089 1.885,0.089 2.6,0 0.715,-0.088 0.13,-0.161 -1.3,-0.161 -1.43,0 -2.015,0.073 -1.3,0.161"
       inkscape:connector-curvature="0"
       style="fill:#ffa99e;fill-rule:evenodd;stroke:none" />
    <path
       id="path4"
       d="m 134.634,67.6 c 0.664,2.741 1.386,4.642 1.215,3.198 -0.092,-0.772 -0.457,-2.032 -0.812,-2.8 -0.411,-0.891 -0.557,-1.035 -0.403,-0.398 m -17.422,2.706 c -0.007,0.278 0.573,1.096 1.288,1.818 0.715,0.722 0.919,0.855 0.454,0.295 -0.466,-0.561 -1.046,-1.379 -1.288,-1.819 -0.243,-0.44 -0.447,-0.572 -0.454,-0.294 m 12.029,3.318 c -0.023,0.562 0.242,1.372 0.589,1.8 0.346,0.427 0.497,0.522 0.336,0.211 -0.162,-0.311 -0.427,-1.121 -0.589,-1.8 -0.271,-1.135 -0.298,-1.153 -0.336,-0.211 M 119,74.988 c 0.66,0.541 1.349,0.99 1.531,0.998 0.182,0.008 -0.204,-0.436 -0.858,-0.986 -0.654,-0.55 -1.343,-0.999 -1.531,-0.998 -0.188,0.001 0.198,0.445 0.858,0.986 m 8.632,0.128 c -0.036,0.575 1.47,3.684 1.784,3.684 0.11,0 -0.138,-0.675 -0.552,-1.5 -0.414,-0.825 -0.854,-1.77 -0.977,-2.1 -0.148,-0.396 -0.235,-0.425 -0.255,-0.084 M 110.153,81.4 c 0,2.64 0.065,3.668 0.144,2.284 0.078,-1.383 0.077,-3.543 -0.002,-4.8 -0.079,-1.256 -0.143,-0.124 -0.142,2.516 M 76.9,78.676 c 0.385,0.1 1.015,0.1 1.4,0 0.385,-0.101 0.07,-0.183 -0.7,-0.183 -0.77,0 -1.085,0.082 -0.7,0.183 m 44.775,9.74 c -0.481,0.448 -0.875,0.93 -0.875,1.069 0,0.14 0.45,-0.168 1,-0.685 0.938,-0.881 1.171,-1.2 0.875,-1.2 -0.068,0 -0.518,0.367 -1,0.816 m 20.187,5.084 c -0.102,0.165 2.39,0.3 5.538,0.3 3.148,0 5.64,-0.135 5.538,-0.3 -0.102,-0.165 -2.594,-0.3 -5.538,-0.3 -2.944,0 -5.436,0.135 -5.538,0.3 m 65.453,-0.004 c 1.273,0.08 3.253,0.079 4.4,-0.002 1.147,-0.08 0.105,-0.145 -2.315,-0.144 -2.42,0.001 -3.358,0.066 -2.085,0.146 m 23.978,-0.005 4.294,0.136 0.117,10.486 0.117,10.487 -0.011,-10.6 -0.01,-10.6 -4.4,-0.022 -4.4,-0.023 4.293,0.136 m 13.207,0.005 c 1.265,0.079 3.335,0.079 4.6,0 1.265,-0.08 0.23,-0.145 -2.3,-0.145 -2.53,0 -3.565,0.065 -2.3,0.145 M 259,93.462 c 3.835,0.293 8.111,0.314 7.94,0.038 -0.103,-0.165 -2.292,-0.269 -4.864,-0.23 -2.572,0.038 -3.956,0.125 -3.076,0.192 m 24.696,0.029 4.295,0.136 0.111,16.286 0.112,16.287 -0.007,-16.4 -0.007,-16.4 -4.4,-0.022 -4.4,-0.023 4.296,0.136 m 19.766,0.009 c -0.102,0.165 2.39,0.3 5.538,0.3 3.148,0 5.64,-0.135 5.538,-0.3 -0.102,-0.165 -2.594,-0.3 -5.538,-0.3 -2.944,0 -5.436,0.135 -5.538,0.3 M 75.5,101.893 c 0.935,0.084 2.465,0.084 3.4,0 0.935,-0.084 0.17,-0.153 -1.7,-0.153 -1.87,0 -2.635,0.069 -1.7,0.153 m 100.675,1.007 -1.175,1.3 1.3,-1.175 c 0.715,-0.646 1.3,-1.231 1.3,-1.3 0,-0.309 -0.33,-0.037 -1.425,1.175 m 11.025,-1.175 c 0,0.069 0.585,0.654 1.3,1.3 l 1.3,1.175 -1.175,-1.3 c -1.095,-1.212 -1.425,-1.484 -1.425,-1.175 m -22.272,7.875 c 0,1.43 0.073,2.015 0.161,1.3 0.089,-0.715 0.089,-1.885 0,-2.6 -0.088,-0.715 -0.161,-0.13 -0.161,1.3 m -61.328,5.725 c 0,0.069 0.585,0.654 1.3,1.3 l 1.3,1.175 -1.175,-1.3 c -1.095,-1.212 -1.425,-1.484 -1.425,-1.175 m 37.462,6.175 c -0.102,0.165 2.75,0.3 6.338,0.3 3.588,0 6.44,-0.135 6.338,-0.3 -0.102,-0.165 -2.954,-0.3 -6.338,-0.3 -3.384,0 -6.236,0.135 -6.338,0.3 m 161.6,0 c -0.102,0.165 2.75,0.3 6.338,0.3 3.588,0 6.44,-0.135 6.338,-0.3 -0.102,-0.165 -2.954,-0.3 -6.338,-0.3 -3.384,0 -6.236,0.135 -6.338,0.3"
       inkscape:connector-curvature="0"
       style="fill:#ffcec5;fill-rule:evenodd;stroke:none" />
  </g>
</svg>
